<svg xmlns="http://www.w3.org/2000/svg" viewBox="0 0 1200 720" role="img" aria-labelledby="title desc">
  <title id="title">Lesson 05 Cafe</title>
  <desc id="desc">Cafe ordering scenario with menu board and owl mentor.</desc>
  <defs>
    <linearGradient id="bg" x1="0" y1="0" x2="1" y2="1">
      <stop offset="0%" stop-color="#0b1120"/>
      <stop offset="100%" stop-color="#4a220b"/>
    </linearGradient>
  </defs>
  <rect width="1200" height="720" fill="url(#bg)"/>
  <rect x="70" y="70" width="1060" height="580" rx="26" fill="#111827" stroke="#fb923c" stroke-width="3"/>
  <text x="120" y="150" font-family="Segoe UI, Arial, sans-serif" font-size="34" fill="#f8fafc">Lesson 05: At the Cafe</text>
  <rect x="130" y="210" width="520" height="300" rx="18" fill="#1f2937"/>
  <rect x="170" y="245" width="440" height="70" rx="10" fill="#0f172a"/>
  <text x="205" y="290" font-family="Segoe UI, Arial, sans-serif" font-size="30" fill="#22c55e">MENU: tea, coffee, water</text>
  <rect x="170" y="340" width="200" height="130" rx="12" fill="#78350f"/>
  <ellipse cx="270" cy="405" rx="70" ry="34" fill="#cbd5e1"/>
  <ellipse cx="270" cy="405" rx="48" ry="20" fill="#7c2d12"/>
  <rect x="430" y="340" width="130" height="130" rx="20" fill="#bae6fd"/>
  <rect x="472" y="300" width="45" height="45" rx="10" fill="#38bdf8"/>
  <ellipse cx="860" cy="330" rx="135" ry="108" fill="#f8fafc"/>
  <circle cx="814" cy="316" r="34" fill="#f59e0b"/><circle cx="908" cy="316" r="34" fill="#f59e0b"/>
  <circle cx="814" cy="316" r="14" fill="#0f172a"/><circle cx="908" cy="316" r="14" fill="#0f172a"/>
  <polygon points="860,338 838,369 882,369" fill="#ea580c"/>
  <rect x="720" y="470" width="320" height="62" rx="12" fill="#1e293b"/>
  <text x="750" y="510" font-family="Segoe UI, Arial, sans-serif" font-size="28" fill="#22c55e">I would like coffee.</text>
  <rect x="130" y="565" width="920" height="50" rx="10" fill="#1e293b"/>
  <text x="160" y="598" font-family="Segoe UI, Arial, sans-serif" font-size="28" fill="#93c5fd">Can I have the menu? | Could I have the bill?</text>
</svg>
