<svg xmlns="http://www.w3.org/2000/svg" viewBox="0 0 1200 720" role="img" aria-labelledby="title desc">
  <title id="title">Lesson 02 From</title>
  <desc id="desc">Map-style scene for talking about countries and cities with owl mentor.</desc>
  <defs>
    <linearGradient id="bg" x1="0" y1="0" x2="1" y2="1">
      <stop offset="0%" stop-color="#111827"/>
      <stop offset="100%" stop-color="#0f3d3e"/>
    </linearGradient>
  </defs>
  <rect width="1200" height="720" fill="url(#bg)"/>
  <rect x="80" y="80" width="1040" height="560" rx="28" fill="#0f172a" stroke="#22c55e" stroke-width="3"/>
  <text x="130" y="160" font-family="Segoe UI, Arial, sans-serif" font-size="34" fill="#e2e8f0">Lesson 02: Where are you from?</text>
  <rect x="130" y="220" width="560" height="280" rx="16" fill="#0b3b56"/>
  <path d="M210 350 L290 300 L365 330 L335 390 L255 410 Z" fill="#60a5fa"/>
  <path d="M380 280 L500 260 L555 330 L520 430 L395 420 L345 340 Z" fill="#38bdf8"/>
  <circle cx="330" cy="365" r="12" fill="#fef08a"/>
  <circle cx="460" cy="350" r="12" fill="#fef08a"/>
  <line x1="330" y1="365" x2="460" y2="350" stroke="#fef08a" stroke-width="4" stroke-dasharray="12 8"/>
  <text x="294" y="455" font-family="Segoe UI, Arial, sans-serif" font-size="26" fill="#dbeafe">Ukraine</text>
  <text x="432" y="470" font-family="Segoe UI, Arial, sans-serif" font-size="26" fill="#dbeafe">Kyiv</text>
  <ellipse cx="870" cy="340" rx="130" ry="105" fill="#f8fafc"/>
  <circle cx="825" cy="325" r="34" fill="#f59e0b"/>
  <circle cx="915" cy="325" r="34" fill="#f59e0b"/>
  <circle cx="825" cy="325" r="14" fill="#111827"/>
  <circle cx="915" cy="325" r="14" fill="#111827"/>
  <polygon points="870,345 848,377 892,377" fill="#ea580c"/>
  <rect x="740" y="470" width="260" height="60" rx="12" fill="#1e293b"/>
  <text x="770" y="510" font-family="Segoe UI, Arial, sans-serif" font-size="28" fill="#22c55e">I am from Ukraine.</text>
  <rect x="130" y="550" width="870" height="52" rx="12" fill="#1e293b"/>
  <text x="160" y="585" font-family="Segoe UI, Arial, sans-serif" font-size="28" fill="#93c5fd">I live in Kyiv. | What is your address?</text>
</svg>
